<?xml version="1.0" encoding="UTF-8"?>
<svg width="524px" height="60px" viewBox="0 0 524 60" version="1.1" xmlns="http://www.w3.org/2000/svg" xmlns:xlink="http://www.w3.org/1999/xlink">
    <!-- Generator: Sketch 48.1 (47250) - http://www.bohemiancoding.com/sketch -->
    <title>logo-procamping</title>
    <desc>Created with Sketch.</desc>
    <defs>
        <polygon id="path-1" points="0.06 0.943 158.799 0.943 158.799 59.94 0.06 59.94"></polygon>
    </defs>
    <g id="Page-1" stroke="none" stroke-width="1" fill="none" fill-rule="evenodd">
        <g id="logo-procamping">
            <g id="Group-5">
                <mask id="mask-2" fill="white">
                    <use xlink:href="#path-1"></use>
                </mask>
                <g id="Clip-2"></g>
                <path d="M24.808,27.397 L13.811,27.397 L13.811,15.102 L24.808,15.102 C28.447,15.102 31.014,17.22 31.014,21.182 C31.014,25.059 28.447,27.397 24.808,27.397 Z M26.504,3.074 L1.594,3.074 C0.713,3.074 0,3.792 0,4.678 L0,56.264 C0,57.15 0.713,57.868 1.594,57.868 L12.217,57.868 C13.097,57.868 13.811,57.15 13.811,56.264 L13.811,39.693 L26.628,39.693 C38.487,39.693 44.843,31.507 44.843,21.45 C44.843,11.308 38.363,3.074 26.504,3.074 Z" id="Fill-1" fill="#5BB46A" mask="url(#mask-2)"></path>
                <path d="M74.766,27.397 L64.006,27.397 L64.006,15.102 L74.766,15.102 C78.327,15.102 81.373,17.22 81.373,21.096 C81.373,25.145 78.327,27.397 74.766,27.397 Z M84.692,37.894 C89.592,36.124 95.203,31.075 95.203,21.339 C95.203,10.956 88.565,3.074 76.863,3.074 L51.789,3.074 C50.909,3.074 50.196,3.792 50.196,4.678 L50.196,56.264 C50.196,57.15 50.909,57.868 51.789,57.868 L62.413,57.868 C63.293,57.868 64.006,57.15 64.006,56.264 L64.006,39.693 L70.969,39.693 L79.122,56.428 C79.509,57.223 80.537,57.868 81.417,57.868 L93.85,57.868 C94.731,57.868 95.104,57.237 94.685,56.458 L84.692,37.894 Z" id="Fill-3" fill="#5BB46A" mask="url(#mask-2)"></path>
                <path d="M128.135,15.202 C128.556,15.202 128.971,15.216 129.377,15.245 L140.48,5.527 C137.404,4.231 133.987,3.432 130.32,3.204 L129.028,1.477 C128.316,0.765 127.162,0.765 126.449,1.477 L125.094,3.27 C110.938,4.504 100.642,14.358 99.649,28.277 L98.088,29.4 C97.376,30.113 97.376,31.267 98.088,31.979 L99.682,33.135 C100.373,41.281 104.269,48.001 110.258,52.371 L114.829,37.462 C113.898,35.383 113.401,33.022 113.401,30.502 C113.401,21.86 119.149,15.202 128.135,15.202 Z M158.265,29.4 L156.526,28.1 C155.909,20.04 152.183,13.356 146.392,8.939 L141.657,24.218 C142.395,26.121 142.788,28.244 142.788,30.502 C142.788,39.065 137.041,45.804 128.135,45.804 C127.876,45.804 127.621,45.798 127.367,45.787 L116.111,55.614 C118.884,56.738 121.923,57.467 125.164,57.743 L126.449,59.466 C127.162,60.178 128.316,60.178 129.028,59.466 L130.252,57.804 C144.672,56.938 155.238,47.224 156.493,33.315 L158.265,31.979 C158.977,31.267 158.977,30.113 158.265,29.4 Z" id="Fill-4" fill="#5BB46A" mask="url(#mask-2)"></path>
            </g>
            <path d="M210.864,43.057 C207.452,41.466 205.144,40.389 202.061,38.951 C201.262,38.579 200.182,38.848 199.615,39.526 C195.872,44.002 192.465,45.804 188.766,45.804 C180.002,45.804 173.811,39.144 173.811,30.502 C173.811,21.86 180.002,15.202 188.766,15.202 C192.465,15.202 195.872,17.002 199.615,21.478 C200.182,22.156 201.262,22.425 202.061,22.053 C205.143,20.615 207.451,19.538 210.86,17.948 C211.659,17.576 211.922,16.669 211.424,15.939 C206.066,8.087 199.482,3.138 188.766,3.138 C172.309,3.138 159.981,14.17 159.981,30.502 C159.981,46.757 172.309,57.868 188.766,57.868 C199.452,57.868 206.084,52.839 211.423,45.064 C211.924,44.335 211.662,43.43 210.864,43.057" id="Fill-6" fill="#5BB46A"></path>
            <path d="M268.803,56.366 L249.573,4.577 C249.264,3.747 248.301,3.074 247.421,3.074 L233.241,3.074 C232.361,3.074 231.399,3.747 231.092,4.578 L211.938,56.365 C211.631,57.195 212.095,57.868 212.975,57.868 L225.512,57.868 C226.393,57.868 227.327,57.185 227.599,56.343 L240.33,16.935 L249.445,45.126 L244.104,45.126 C243.137,45.126 242.122,45.875 241.835,46.797 L238.935,56.141 C238.649,57.064 239.2,57.813 240.167,57.813 L254.714,57.813 C254.862,57.849 255.011,57.868 255.159,57.868 L267.767,57.868 C268.647,57.868 269.111,57.196 268.803,56.366" id="Fill-7" fill="#5BB46A"></path>
            <path d="M331.186,3.074 L315.328,3.074 C314.448,3.074 313.486,3.748 313.179,4.578 L302.753,32.844 L292.401,4.579 C292.096,3.748 291.136,3.074 290.256,3.074 L274.35,3.074 C273.47,3.074 272.757,3.792 272.757,4.678 L272.757,56.264 C272.757,57.15 273.47,57.868 274.35,57.868 L284.974,57.868 C285.854,57.868 286.567,57.15 286.567,56.264 L286.567,22.26 L298.704,55.046 C299.281,56.605 301.106,57.868 302.753,57.868 C304.399,57.868 306.18,56.605 306.76,55.048 L318.969,22.26 L318.969,56.264 C318.969,57.15 319.682,57.868 320.562,57.868 L331.186,57.868 C332.066,57.868 332.779,57.15 332.779,56.264 L332.779,4.678 C332.779,3.792 332.066,3.074 331.186,3.074" id="Fill-8" fill="#5BB46A"></path>
            <path d="M367.148,27.397 L356.151,27.397 L356.151,15.102 L367.148,15.102 C370.788,15.102 373.372,17.22 373.372,21.182 C373.372,25.059 370.788,27.397 367.148,27.397 Z M368.862,3.074 L343.934,3.074 C343.054,3.074 342.34,3.792 342.34,4.678 L342.34,56.264 C342.34,57.15 343.054,57.868 343.934,57.868 L354.557,57.868 C355.438,57.868 356.151,57.15 356.151,56.264 L356.151,39.693 L368.968,39.693 C380.827,39.693 387.202,31.396 387.202,21.339 C387.202,11.197 380.722,3.074 368.862,3.074 Z" id="Fill-9" fill="#5BB46A"></path>
            <path d="M404.753,3.074 L394.13,3.074 C393.25,3.074 392.536,3.792 392.536,4.678 L392.536,56.264 C392.536,57.15 393.25,57.868 394.13,57.868 L404.753,57.868 C405.633,57.868 406.347,57.15 406.347,56.264 L406.347,4.678 C406.347,3.792 405.633,3.074 404.753,3.074" id="Fill-10" fill="#5BB46A"></path>
            <path d="M462.12,3.074 L451.496,3.074 C450.616,3.074 449.903,3.792 449.903,4.678 L449.903,33.254 L429.899,4.39 C429.396,3.663 428.274,3.074 427.394,3.074 L416.439,3.074 C415.559,3.074 414.845,3.792 414.845,4.678 L414.845,56.264 C414.845,57.15 415.559,57.868 416.439,57.868 L427.062,57.868 C427.943,57.868 428.656,57.15 428.656,56.264 L428.656,26.198 L449.616,56.551 C450.119,57.278 451.239,57.868 452.119,57.868 L462.12,57.868 C463,57.868 463.713,57.15 463.713,56.264 L463.713,4.678 C463.713,3.792 463,3.074 462.12,3.074" id="Fill-11" fill="#5BB46A"></path>
            <path d="M521.611,26.596 C516.187,26.596 498.771,26.596 498.771,26.596 C497.891,26.596 497.177,27.314 497.177,28.199 L497.177,37.02 C497.177,37.905 497.891,38.624 498.771,38.624 L509.394,38.624 L509.394,42.715 C507.423,44.288 503.319,45.804 499.296,45.804 C490.348,45.804 484.008,39.196 484.008,30.497 C484.008,21.841 490.329,15.202 499.277,15.202 C502.983,15.202 506.135,16.765 510.02,20.614 C510.647,21.235 511.771,21.434 512.555,21.033 C515.574,19.487 517.807,18.344 521.14,16.638 C521.924,16.237 522.142,15.329 521.6,14.631 C515.967,7.373 509.294,3.138 499.277,3.138 C482.98,3.138 470.178,13.694 470.178,30.497 C470.178,47.312 482.98,57.868 499.277,57.868 C508.388,57.868 515.527,54.725 521.056,49.688 C522.292,48.561 523.205,46.186 523.205,44.503 L523.205,28.199 C523.205,27.314 522.491,26.596 521.611,26.596" id="Fill-12" fill="#5BB46A"></path>
            <path d="M128.176,34.19 C126.244,34.19 124.677,32.623 124.677,30.69 C124.677,28.757 126.244,27.19 128.176,27.19 C130.109,27.19 131.676,28.757 131.676,30.69 C131.676,32.623 130.109,34.19 128.176,34.19 Z M142.255,6.752 L122.069,24.483 C121.19,25.254 120.206,26.771 119.87,27.872 L112.091,53.326 C111.383,55.641 112.286,56.225 114.107,54.629 L134.128,37.087 C135.007,36.316 135.995,34.801 136.334,33.702 L144.255,8.048 C144.97,5.735 144.074,5.154 142.255,6.752 Z" id="Fill-13" fill="#3E9048"></path>
        </g>
    </g>
</svg>